<svg xmlns="http://www.w3.org/2000/svg" width="35" height="35" viewBox="0 0 35 35">
    <g fill="none" fill-rule="nonzero">
        <path fill="#000" d="M17.442 1.842c-8.602 0-15.6 7.14-15.6 15.916s6.998 15.916 15.6 15.916c8.603 0 15.601-7.14 15.601-15.916s-6.999-15.916-15.6-15.916z"/>
        <path fill="#FFF" d="M10.253 13.731a.696.696 0 0 0-.226-.586l-1.677-2.02v-.303h5.204l4.022 8.828 3.536-8.828h4.96v.302l-1.432 1.374a.42.42 0 0 0-.16.403v10.101a.42.42 0 0 0 .16.403l1.4 1.374v.302H19v-.302l1.45-1.408c.142-.142.142-.185.142-.402v-8.165l-4.031 10.243h-.544l-4.694-10.244v6.866a.95.95 0 0 0 .26.787l1.886 2.288v.303H8.124v-.303l1.885-2.288a.914.914 0 0 0 .244-.787V13.73v.001z"/>
    </g>
</svg>
