<svg xmlns="http://www.w3.org/2000/svg" width="256" height="191" viewBox="0 0 256 191">
    <g fill="none" fill-rule="nonzero" transform="translate(2 -10)">
        <path fill="#E4F5FC" d="M213.239 89.434c-19.37-13.32-36.607-59.542-81.142-59.542-78.057 0-125.098 88.446-104.56 130.072 19.292 36.195 92.453 27.742 108.633 28.53 26.061-.196 64.16.971 82.331-14.212 30.84-24.065 18.654-67.82-5.262-84.848z"/>
        <ellipse cx="130.037" cy="191.933" fill="#ACE3FB" opacity=".5" rx="90.254" ry="4.232"/>
        <path fill="#48B2FF" d="M46.829 157.555h166.41v10.038c0 3.703-3.017 6.704-6.738 6.704H53.573c-3.722 0-6.739-3.001-6.739-6.704v-10.038h-.005z"/>
        <path fill="#48B2FF" d="M113.289 174.282h34.154v14.64h-34.154z"/>
        <path fill="#2461AA" d="M51.544 61.074h156.98c2.604 0 4.715 2.1 4.715 4.691v92.06H46.829V65.76c.003-2.59 2.113-4.686 4.715-4.686z"/>
        <path fill="#E4E8EA" d="M53.589 68.032h153.932v83.818H53.589z"/>
        <path fill="#FFF" d="M133.812 165.168a3.74 3.74 0 0 1-2.32 3.456 3.773 3.773 0 0 1-4.098-.811 3.727 3.727 0 0 1-.815-4.076 3.76 3.76 0 0 1 3.474-2.31c2.076 0 3.759 1.675 3.759 3.741z"/>
        <path fill="#48B2FF" d="M162.05 193.819H98.06c0-2.705 2.204-4.898 4.922-4.898h54.162c2.719 0 4.922 2.193 4.922 4.898h-.015z"/>
        <path fill="#2461AA" d="M113.289 174.282h34.154v14.64h-34.154z" opacity=".2"/>
        <path fill="#184984" d="M148.319 113.752a25.873 25.873 0 0 0-18.282-7.554 25.873 25.873 0 0 0-18.283 7.554l-6.451-6.403a35.008 35.008 0 0 1 24.734-10.218 35.008 35.008 0 0 1 24.734 10.218l-6.452 6.403zm-18.282-22.66a40.832 40.832 0 0 1 29.019 11.978l6.451-6.388a50.255 50.255 0 0 0-35.47-14.633 50.255 50.255 0 0 0-35.471 14.633l6.446 6.409a40.832 40.832 0 0 1 29.025-11.998zm13.997 26.945a19.788 19.788 0 0 0-14-5.795 19.788 19.788 0 0 0-14 5.795l6.462 6.392a10.647 10.647 0 0 1 7.538-3.122c2.83 0 5.544 1.124 7.537 3.122l6.463-6.392z" opacity=".2" style="mix-blend-mode:multiply"/>
        <path fill="#F7A232" d="M126.909 122.781a1.06 1.06 0 0 1-1.062-.993l-2.49-40.057c-.018-.29.086-.575.286-.787.201-.213.482-.334.776-.333h11.767a1.064 1.064 0 0 1 1.056 1.136l-2.984 40.051a1.06 1.06 0 0 1-1.062.983h-6.287z"/>
        <path fill="#E4E8EA" d="M136.186 81.667l-2.99 40.058h-6.287l-2.49-40.058h11.767zm0-2.113h-11.767a2.13 2.13 0 0 0-1.55.666 2.15 2.15 0 0 0-.574 1.585l2.49 40.046a2.12 2.12 0 0 0 2.124 1.987h6.287a2.12 2.12 0 0 0 2.124-1.96l2.979-39.989v-.237c0-1.168-.951-2.114-2.124-2.114l.01.016z"/>
        <ellipse cx="130.037" cy="130.748" fill="#F7A232" rx="4.853" ry="4.829"/>
        <path fill="#ACE3FB" d="M5.05 97.127l-4.52-5.9 5.928-4.496 4.52 5.898zM200.545 17.463l-3.89-3.026 3.041-3.87 3.89 3.026zM244.609 103.375l-7.549-.77.774-7.51 7.548.77z" opacity=".44"/>
    </g>
</svg>
