<svg xmlns="http://www.w3.org/2000/svg" width="24" height="20" viewBox="0 0 24 20">
    <path fill="#65BBF2" fill-rule="evenodd" d="M21.04 3.134c.471-.25 1.6-.993 2.133-2.588 0 0-1.283.953-3.03 1.065l-.031.018C19.219.628 17.934 0 16.506 0c-2.702 0-4.892 2.249-4.892 5.023 0 .42.05.83.146 1.22l-.024-.036s-5.24.308-10.18-5.24c0 0-2.184 3.81 1.556 6.725-.82.14-2.265-.617-2.265-.617s.081 4.007 3.957 4.988c-.628.168-1.802.224-2.184.056 0 0 .573 3.054 4.531 3.587-1.01.588-2.893 2.381-7.151 2.045 0 0 3.058 2.578 8.735 2.214 5.677-.364 9.798-4.288 11.463-8.434C21.863 7.384 21.4 5.023 21.4 5.023s1.39-.75 2.347-2.543c-.442.136-2.08.547-2.69.699-.563.14-.53.228-.017-.045z"/>
</svg>
